<?xml version="1.0" encoding="iso-8859-1"?>
<!-- Generator: Adobe Illustrator 18.1.1, SVG Export Plug-In . SVG Version: 6.00 Build 0)  -->
<svg xmlns="http://www.w3.org/2000/svg" xmlns:xlink="http://www.w3.org/1999/xlink" version="1.1" id="Capa_1" x="0px" y="0px" viewBox="0 0 517.459 517.459" style="enable-background:new 0 0 517.459 517.459;" xml:space="preserve" width="512px" height="512px">
<g>
	<g>
		<path d="M513.63,133.58c-4.582,20.319-14.244,37.651-28.986,51.995    c-13.945,13.946-30.182,23.408-48.709,28.391c-18.527,4.979-36.955,5.079-55.283,0.299    c-65.344,45.818-120.926,100.207-166.746,163.16c5.977,18.325,6.575,37.353,1.793,57.073    c-4.782,19.726-14.344,36.759-28.688,51.103c-14.742,14.742-32.273,24.403-52.594,28.983c-20.321,4.582-39.645,3.688-57.973-2.688    l61.559-61.56l-2.391-44.229l-23.309-23.309l-44.227-2.394L6.517,441.966c-6.375-18.328-7.271-37.652-2.689-57.976    c4.582-20.319,14.244-37.852,28.986-52.594c15.937-15.938,35.062-25.898,57.375-29.883s43.231-1.595,62.754,7.172    c57.773-41.836,109.172-94.629,154.195-158.379c-8.367-19.523-10.459-40.142-6.275-61.857    c4.187-21.715,14.045-40.541,29.584-56.479c14.742-14.743,32.273-24.405,52.597-28.987c20.318-4.582,39.645-3.885,57.973,2.092    l-61.562,61.56l2.394,44.824l23.309,23.309l44.229,2.391L510.946,75.6C517.315,93.935,518.212,113.26,513.63,133.58z" fill="#006DF0"/>
	</g>
</g>
<g>
</g>
<g>
</g>
<g>
</g>
<g>
</g>
<g>
</g>
<g>
</g>
<g>
</g>
<g>
</g>
<g>
</g>
<g>
</g>
<g>
</g>
<g>
</g>
<g>
</g>
<g>
</g>
<g>
</g>
</svg>
